<svg width="123" height="24" viewBox="0 0 123 24" fill="none" xmlns="http://www.w3.org/2000/svg">
<g clip-path="url(#clip0_437_6557)">
<path d="M90.21 18.5833V0.25H96.9508C100.363 0.25 102.61 2.33333 102.61 5.33333C102.61 7.66667 101.029 9.58333 98.6152 10.25L103.858 18.5833H101.445L96.4515 10.5H92.3737V18.5833H90.21ZM96.7844 2H92.3737V8.75H96.7012C99.281 8.75 100.529 7.16667 100.529 5.33333C100.529 3.41667 99.1978 2 96.7844 2Z" fill="#4B4D4F"/>
<path d="M103.691 18.584L109.018 11.5007L104.191 5.08398H106.604L110.266 10.0007L113.928 5.08398H116.258L111.431 11.4173L116.84 18.584H114.427L110.266 12.9173L106.022 18.584H103.691Z" fill="#4B4D4F"/>
<path d="M120.252 9.83314C118.754 9.83314 117.506 8.66647 117.506 7.08314C117.506 5.4998 118.754 4.33314 120.252 4.33314C121.75 4.33314 122.999 5.4998 122.999 7.08314C122.999 8.66647 121.75 9.83314 120.252 9.83314ZM120.252 9.33314C121.501 9.33314 122.416 8.41647 122.416 7.16647C122.416 5.91647 121.501 4.91647 120.252 4.91647C119.087 4.91647 118.089 5.83314 118.089 7.16647C118.089 8.4998 119.087 9.33314 120.252 9.33314ZM119.337 8.41647V5.7498H120.502C121.001 5.7498 121.334 5.9998 121.334 6.4998C121.334 6.83314 121.168 6.9998 120.835 7.16647L121.501 8.33314H120.835L120.252 7.33314H119.836V8.33314H119.337V8.41647ZM120.336 6.2498H119.836V6.91647H120.336C120.585 6.91647 120.752 6.7498 120.752 6.58314C120.752 6.41647 120.585 6.2498 120.336 6.2498Z" fill="#4B4D4F"/>
<path d="M61.4168 18.5V4.5H65.8275V6.16667C66.7429 4.91667 67.9912 4.25 69.5724 4.25C71.4865 4.25 72.818 5.16667 73.567 6.5C74.4824 5 76.1468 4.25 77.8945 4.25C80.9736 4.25 82.638 6.58333 82.638 9.41667V18.4167H78.1441V10.0833C78.1441 8.75 77.3119 7.91667 76.23 7.91667C75.1482 7.91667 74.316 8.75 74.316 10.0833V18.4167H69.8221V10.0833C69.8221 8.75 68.9899 7.91667 67.908 7.91667C66.8261 7.91667 65.9939 8.75 65.9939 10.0833V18.4167L61.4168 18.5ZM59.9188 13.1667C59.9188 16.75 57.0061 18.8333 53.3444 18.8333C49.6827 18.8333 46.77 16.75 46.77 13.1667V4.5H51.3471V13.0833C51.3471 14.3333 52.1793 15.0833 53.3444 15.0833C54.5095 15.0833 55.3417 14.3333 55.3417 13.0833V4.5H59.9188V13.1667ZM45.6049 8.08333V4.5H41.8599V0.916667H37.366V13.5C37.366 17 39.4466 18.75 42.7754 18.75C43.774 18.75 44.7727 18.6667 45.6881 18.25V14.6667C44.9391 14.9167 44.3566 15 43.8572 15C42.6089 15 41.8599 14.4167 41.8599 13.1667V8.16667H45.6049V8.08333ZM31.6238 11.5C31.6238 13.5 30.1258 15 28.3782 15C26.5474 15 25.0494 13.5 25.0494 11.5C25.0494 9.5 26.5474 8 28.3782 8C30.1258 8 31.6238 9.5 31.6238 11.5ZM25.0494 24V17.0833C26.2145 18.1667 27.7125 18.75 29.3769 18.75C33.205 18.75 36.1177 15.5 36.1177 11.5C36.1177 7.5 33.1218 4.25 29.3769 4.25C27.6292 4.25 26.048 4.91667 24.8829 6.08333V4.5H20.4723V24H25.0494ZM14.3139 9.33333C14.3139 12.25 12.1502 14.3333 9.57037 14.3333C6.99053 14.3333 4.82679 12.1667 4.82679 9.33333C4.82679 6.41667 6.90731 4.33333 9.57037 4.33333C12.2334 4.33333 14.3139 6.5 14.3139 9.33333ZM9.57037 0C4.24425 0 0 4.16667 0 9.33333C0 14.5 4.24425 18.6667 9.57037 18.6667C14.8965 18.6667 19.1407 14.5833 19.1407 9.33333C19.1407 4.08333 14.8965 0 9.57037 0Z" fill="#FF612B"/>
</g>
<defs>
<clipPath id="clip0_437_6557">
<rect width="123" height="24" fill="white"/>
</clipPath>
</defs>
</svg>
